<svg viewBox="0 0 24 24" fill="none" xmlns="http://www.w3.org/2000/svg">
<path d="M21.731 2.26899C21.2387 1.77681 20.5711 1.50031 19.875 1.50031C19.1789 1.50031 18.5113 1.77681 18.019 2.26899L16.862 3.42599L20.574 7.13799L21.731 5.98099C22.2232 5.48872 22.4997 4.82111 22.4997 4.12499C22.4997 3.42888 22.2232 2.76127 21.731 2.26899ZM19.513 8.199L15.801 4.48699L3.65101 16.637C3.03386 17.2538 2.58019 18.0148 2.33101 18.851L1.53101 21.536C1.49239 21.6656 1.48951 21.8032 1.52267 21.9342C1.55584 22.0653 1.62382 22.185 1.71943 22.2806C1.81503 22.3762 1.9347 22.4442 2.06577 22.4773C2.19684 22.5105 2.33444 22.5076 2.46401 22.469L5.14901 21.669C5.98524 21.4198 6.74617 20.9661 7.36301 20.349L19.513 8.199Z" fill="#fff"/>
</svg>
